letraz.ufo
<glyph name="D" format="2">
	<advance width="683"/>
	<unicode hex="0044"/>
	<anchor x="126" y="650" name="top"/>
	<outline>
		<contour>
			<point x="144" y="0" type="line"/>
			<point x="333" y="0" type="line" smooth="yes"/>
			<point x="555" y="0"/>
			<point x="643" y="93"/>
			<point x="643" y="325" type="curve" smooth="yes"/>
			<point x="643" y="557"/>
			<point x="555" y="650"/>
			<point x="333" y="650" type="curve" smooth="yes"/>
			<point x="144" y="650" type="line"/>
			<point x="144" y="555" type="line"/>
			<point x="333" y="555" type="line" smooth="yes"/>
			<point x="483" y="555"/>
			<point x="543" y="489"/>
			<point x="543" y="325" type="curve" smooth="yes"/>
			<point x="543" y="161"/>
			<point x="483" y="95"/>
			<point x="333" y="95" type="curve" smooth="yes"/>
			<point x="144" y="95" type="line"/>
		</contour>
		<contour>
			<point x="75" y="0" type="line"/>
			<point x="177" y="0" type="line"/>
			<point x="177" y="650" type="line"/>
			<point x="75" y="650" type="line"/>
		</contour>
	</outline>
</glyph>
<glyph name="F" format="2">
	<advance width="575"/>
	<unicode hex="0046"/>
	<outline>
		<contour>
			<point x="550" y="650" type="line"/>
			<point x="137" y="650" type="line"/>
			<point x="137" y="553" type="line"/>
			<point x="550" y="553" type="line"/>
		</contour>
		<contour>
			<point x="75" y="650" type="line"/>
			<point x="75" y="0" type="line"/>
			<point x="172" y="0" type="line"/>
			<point x="172" y="650" type="line"/>
		</contour>
		<contour>
			<point x="503" y="363" type="line"/>
			<point x="140" y="363" type="line"/>
			<point x="140" y="266" type="line"/>
			<point x="503" y="266" type="line"/>
		</contour>
	</outline>
</glyph>
<glyph name="N" format="2">
	<advance width="710"/>
	<unicode hex="004E"/>
	<anchor x="355" y="650" name="top"/>
	<outline>
		<contour>
			<point x="75" y="650" type="line"/>
			<point x="75" y="0" type="line"/>
			<point x="172" y="0" type="line"/>
			<point x="172" y="570" type="line"/>
			<point x="152" y="577" type="line"/>
			<point x="488" y="0" type="line"/>
			<point x="635" y="0" type="line"/>
			<point x="635" y="650" type="line"/>
			<point x="538" y="650" type="line"/>
			<point x="538" y="86" type="line"/>
			<point x="558" y="73" type="line"/>
			<point x="222" y="650" type="line"/>
		</contour>
	</outline>
</glyph>
<glyph name="Q" format="2">
	<advance width="700"/>
	<unicode hex="0051"/>
	<outline>
		<contour>
			<point x="404" y="16" type="curve"/>
			<point x="308" y="16" type="line"/>
			<point x="308" y="-119"/>
			<point x="389" y="-189"/>
			<point x="523" y="-189" type="curve" smooth="yes"/>
			<point x="573" y="-189"/>
			<point x="612" y="-183"/>
			<point x="643" y="-175" type="curve"/>
			<point x="622" y="-91" type="line"/>
			<point x="598" y="-98"/>
			<point x="570" y="-102"/>
			<point x="532" y="-102" type="curve" smooth="yes"/>
			<point x="453" y="-102"/>
			<point x="404" y="-66"/>
		</contour>
		<component base="O"/>
	</outline>
</glyph>
<glyph name="U" format="2">
	<advance width="680"/>
	<unicode hex="0055"/>
	<outline>
		<contour>
			<point x="340" y="-15" type="curve" smooth="yes"/>
			<point x="569" y="-15"/>
			<point x="615" y="105"/>
			<point x="615" y="243" type="curve" smooth="yes"/>
			<point x="615" y="650" type="line"/>
			<point x="513" y="650" type="line"/>
			<point x="513" y="240" type="line" smooth="yes"/>
			<point x="513" y="143"/>
			<point x="469" y="86"/>
			<point x="340" y="86" type="curve" smooth="yes"/>
			<point x="211" y="86"/>
			<point x="167" y="148"/>
			<point x="167" y="240" type="curve" smooth="yes"/>
			<point x="167" y="650" type="line"/>
			<point x="65" y="650" type="line"/>
			<point x="65" y="243" type="line" smooth="yes"/>
			<point x="65" y="105"/>
			<point x="111" y="-15"/>
		</contour>
	</outline>
</glyph>
<glyph name="V" format="2">
	<advance width="683"/>
	<unicode hex="0056"/>
	<outline>
		<contour>
			<point x="118" y="650" type="line"/>
			<point x="5" y="650" type="line"/>
			<point x="259" y="0" type="line"/>
			<point x="424" y="0" type="line"/>
			<point x="678" y="650" type="line"/>
			<point x="565" y="650" type="line"/>
			<point x="353" y="90" type="line"/>
			<point x="330" y="90" type="line"/>
		</contour>
	</outline>
</glyph>
<glyph name="b" format="2">
	<advance width="641"/>
	<unicode hex="0062"/>
	<guideline x="-444" y="430" angle="0"/>
	<guideline x="-444" y="520" angle="0"/>
	<outline>
		<contour>
			<point x="75" y="700" type="line"/>
			<point x="75" y="0" type="line"/>
			<point x="155" y="0" type="line"/>
			<point x="155" y="103" type="line"/>
			<point x="150" y="393" type="line"/>
			<point x="164" y="428"/>
			<point x="170" y="461"/>
			<point x="170" y="496" type="curve" smooth="yes"/>
			<point x="170" y="700" type="line"/>
		</contour>
		<contour>
			<point x="351" y="-15" type="curve" smooth="yes"/>
			<point x="518" y="-15"/>
			<point x="596" y="73"/>
			<point x="596" y="250" type="curve" smooth="yes"/>
			<point x="596" y="427"/>
			<point x="518" y="515"/>
			<point x="351" y="515" type="curve" smooth="yes"/>
			<point x="192" y="515"/>
			<point x="131" y="441"/>
			<point x="131" y="250" type="curve" smooth="yes"/>
			<point x="131" y="59"/>
			<point x="192" y="-15"/>
		</contour>
		<contour>
			<point x="337" y="73" type="curve" smooth="yes"/>
			<point x="222" y="73"/>
			<point x="169" y="135"/>
			<point x="169" y="250" type="curve" smooth="yes"/>
			<point x="169" y="365"/>
			<point x="222" y="427"/>
			<point x="337" y="427" type="curve" smooth="yes"/>
			<point x="451" y="427"/>
			<point x="503" y="366"/>
			<point x="503" y="250" type="curve" smooth="yes"/>
			<point x="503" y="134"/>
			<point x="451" y="73"/>
		</contour>
	</outline>
</glyph>
<glyph name="d" format="2">
	<advance width="641"/>
	<unicode hex="0064"/>
	<outline>
		<contour>
			<point x="486" y="0" type="line"/>
			<point x="566" y="0" type="line"/>
			<point x="566" y="700" type="line"/>
			<point x="471" y="700" type="line"/>
			<point x="471" y="496" type="line" smooth="yes"/>
			<point x="471" y="461"/>
			<point x="477" y="428"/>
			<point x="491" y="393" type="curve"/>
			<point x="486" y="103" type="line"/>
		</contour>
		<contour>
			<point x="290" y="-15" type="curve" smooth="yes"/>
			<point x="449" y="-15"/>
			<point x="510" y="59"/>
			<point x="510" y="250" type="curve" smooth="yes"/>
			<point x="510" y="441"/>
			<point x="449" y="515"/>
			<point x="290" y="515" type="curve" smooth="yes"/>
			<point x="123" y="515"/>
			<point x="45" y="427"/>
			<point x="45" y="250" type="curve" smooth="yes"/>
			<point x="45" y="73"/>
			<point x="123" y="-15"/>
		</contour>
		<contour>
			<point x="304" y="73" type="curve" smooth="yes"/>
			<point x="190" y="73"/>
			<point x="138" y="134"/>
			<point x="138" y="250" type="curve" smooth="yes"/>
			<point x="138" y="366"/>
			<point x="190" y="427"/>
			<point x="304" y="427" type="curve" smooth="yes"/>
			<point x="419" y="427"/>
			<point x="472" y="365"/>
			<point x="472" y="250" type="curve" smooth="yes"/>
			<point x="472" y="135"/>
			<point x="419" y="73"/>
		</contour>
	</outline>
</glyph>
<glyph name="e" format="2">
	<advance width="591"/>
	<unicode hex="0065"/>
	<anchor x="303" y="500" name="top"/>
	<outline>
		<contour>
			<point x="554" y="218" type="line"/>
			<point x="554" y="422"/>
			<point x="478" y="515"/>
			<point x="300" y="515" type="curve" smooth="yes"/>
			<point x="129" y="515"/>
			<point x="45" y="423"/>
			<point x="45" y="250" type="curve" smooth="yes"/>
			<point x="45" y="83"/>
			<point x="134" y="-15"/>
			<point x="309" y="-15" type="curve" smooth="yes"/>
			<point x="431" y="-15"/>
			<point x="502" y="26"/>
			<point x="544" y="95" type="curve"/>
			<point x="454" y="137" type="line"/>
			<point x="427" y="95"/>
			<point x="381" y="73"/>
			<point x="309" y="73" type="curve" smooth="yes"/>
			<point x="191" y="73"/>
			<point x="138" y="132"/>
			<point x="138" y="238" type="curve" smooth="yes"/>
			<point x="138" y="262" type="line" smooth="yes"/>
			<point x="138" y="368"/>
			<point x="189" y="427"/>
			<point x="303" y="427" type="curve" smooth="yes"/>
			<point x="407" y="427"/>
			<point x="459" y="367"/>
			<point x="462" y="270" type="curve"/>
			<point x="477" y="289" type="line"/>
			<point x="83" y="278" type="line"/>
			<point x="83" y="205" type="line"/>
		</contour>
	</outline>
</glyph>
<glyph name="h" format="2">
	<advance width="611"/>
	<unicode hex="0068"/>
	<outline>
		<contour>
			<point x="168" y="324" type="line"/>
			<point x="150" y="393" type="line"/>
			<point x="164" y="428"/>
			<point x="170" y="461"/>
			<point x="170" y="496" type="curve" smooth="yes"/>
			<point x="170" y="700" type="line"/>
			<point x="75" y="700" type="line"/>
			<point x="75" y="0" type="line"/>
			<point x="170" y="0" type="line"/>
			<point x="170" y="293" type="line" smooth="yes"/>
			<point x="170" y="377"/>
			<point x="215" y="427"/>
			<point x="308" y="427" type="curve" smooth="yes"/>
			<point x="401" y="427"/>
			<point x="446" y="381"/>
			<point x="446" y="293" type="curve" smooth="yes"/>
			<point x="446" y="0" type="line"/>
			<point x="541" y="0" type="line"/>
			<point x="541" y="300" type="line" smooth="yes"/>
			<point x="541" y="442"/>
			<point x="475" y="515"/>
			<point x="329" y="515" type="curve" smooth="yes"/>
			<point x="200" y="515"/>
			<point x="129" y="436"/>
			<point x="129" y="293" type="curve"/>
		</contour>
	</outline>
</glyph>
<glyph name="n" format="2">
	<advance width="611"/>
	<unicode hex="006E"/>
	<guideline x="162" y="452" angle="0"/>
	<anchor x="320" y="500" name="top"/>
	<outline>
		<contour>
			<point x="75" y="500" type="line"/>
			<point x="75" y="0" type="line"/>
			<point x="170" y="0" type="line"/>
			<point x="170" y="367" type="line"/>
			<point x="155" y="362" type="line"/>
			<point x="155" y="500" type="line"/>
		</contour>
		<contour>
			<point x="115" y="293" type="curve"/>
			<point x="170" y="293" type="line"/>
			<point x="170" y="377"/>
			<point x="215" y="427"/>
			<point x="308" y="427" type="curve" smooth="yes"/>
			<point x="401" y="427"/>
			<point x="446" y="381"/>
			<point x="446" y="293" type="curve" smooth="yes"/>
			<point x="446" y="0" type="line"/>
			<point x="541" y="0" type="line"/>
			<point x="541" y="300" type="line" smooth="yes"/>
			<point x="541" y="442"/>
			<point x="475" y="515"/>
			<point x="329" y="515" type="curve" smooth="yes"/>
			<point x="191" y="515"/>
			<point x="115" y="436"/>
		</contour>
	</outline>
</glyph>
<glyph name="r" format="2">
	<advance width="373"/>
	<unicode hex="0072"/>
	<outline>
		<contour>
			<point x="70" y="0" type="line"/>
			<point x="166" y="0" type="line"/>
			<point x="166" y="308" type="line" smooth="yes"/>
			<point x="166" y="384"/>
			<point x="195" y="417"/>
			<point x="267" y="417" type="curve" smooth="yes"/>
			<point x="304" y="417"/>
			<point x="330" y="413"/>
			<point x="350" y="410" type="curve"/>
			<point x="363" y="499" type="line"/>
			<point x="336" y="502"/>
			<point x="307" y="505"/>
			<point x="265" y="505" type="curve" smooth="yes"/>
			<point x="134" y="505"/>
			<point x="70" y="454"/>
			<point x="70" y="313" type="curve" smooth="yes"/>
		</contour>
	</outline>
</glyph>
<glyph name="w" format="2">
	<advance width="809"/>
	<unicode hex="0077"/>
	<outline>
		<contour>
			<point x="135" y="0" type="line"/>
			<point x="303" y="0" type="line"/>
			<point x="393" y="410" type="line"/>
			<point x="416" y="410" type="line"/>
			<point x="506" y="0" type="line"/>
			<point x="674" y="0" type="line"/>
			<point x="799" y="500" type="line"/>
			<point x="686" y="500" type="line"/>
			<point x="601" y="90" type="line"/>
			<point x="578" y="90" type="line"/>
			<point x="493" y="500" type="line"/>
			<point x="316" y="500" type="line"/>
			<point x="231" y="90" type="line"/>
			<point x="208" y="90" type="line"/>
			<point x="123" y="500" type="line"/>
			<point x="10" y="500" type="line"/>
		</contour>
	</outline>
</glyph>
<glyph name="tildecomb" format="2">
	<advance width="0"/>
	<unicode hex="0303"/>
	<anchor x="0" y="500" name="_top"/>
	<outline>
		<contour>
			<point x="-210" y="594" type="curve"/>
			<point x="-120" y="594" type="line"/>
			<point x="-120" y="623"/>
			<point x="-104" y="645"/>
			<point x="-73" y="645" type="curve" smooth="yes"/>
			<point x="-28" y="645"/>
			<point x="13" y="589"/>
			<point x="91" y="589" type="curve" smooth="yes"/>
			<point x="150" y="589"/>
			<point x="209" y="633"/>
			<point x="210" y="729" type="curve"/>
			<point x="120" y="729" type="line"/>
			<point x="120" y="700"/>
			<point x="104" y="678"/>
			<point x="73" y="678" type="curve" smooth="yes"/>
			<point x="28" y="678"/>
			<point x="-13" y="734"/>
			<point x="-91" y="734" type="curve" smooth="yes"/>
			<point x="-150" y="734"/>
			<point x="-209" y="690"/>
		</contour>
	</outline>
</glyph>
<glyph name="B.alt" format="2">
	<advance width="963"/>
	<guideline x="271" y="114" angle="90"/>
	<outline>
		<contour>
			<point x="75" y="0" type="line"/>
			<point x="665" y="0" type="line" smooth="yes"/>
			<point x="845" y="0"/>
			<point x="913" y="54"/>
			<point x="913" y="174" type="curve" smooth="yes"/>
			<point x="913" y="327"/>
			<point x="831" y="344"/>
			<point x="634" y="344" type="curve"/>
			<point x="593" y="317" type="line"/>
			<point x="803" y="316"/>
			<point x="884" y="335"/>
			<point x="884" y="483" type="curve" smooth="yes"/>
			<point x="884" y="602"/>
			<point x="824" y="650"/>
			<point x="640" y="650" type="curve" smooth="yes"/>
			<point x="75" y="650" type="line"/>
		</contour>
		<contour>
			<point x="130" y="95" type="line"/>
			<point x="177" y="54" type="line"/>
			<point x="177" y="610" type="line"/>
			<point x="119" y="555" type="line"/>
			<point x="617" y="555" type="line" smooth="yes"/>
			<point x="749" y="555"/>
			<point x="784" y="535"/>
			<point x="784" y="463" type="curve" smooth="yes"/>
			<point x="784" y="391"/>
			<point x="749" y="375"/>
			<point x="617" y="375" type="curve" smooth="yes"/>
			<point x="119" y="375" type="line"/>
			<point x="119" y="280" type="line"/>
			<point x="647" y="280" type="line" smooth="yes"/>
			<point x="768" y="280"/>
			<point x="813" y="267"/>
			<point x="813" y="185" type="curve" smooth="yes"/>
			<point x="813" y="107"/>
			<point x="768" y="95"/>
			<point x="647" y="95" type="curve" smooth="yes"/>
		</contour>
	</outline>
</glyph>
<glyph name="E.alt" format="2">
	<advance width="914"/>
	<outline>
		<contour>
			<point x="154" y="377" type="line"/>
			<point x="154" y="280" type="line"/>
			<point x="829" y="280" type="line"/>
			<point x="829" y="377" type="line"/>
		</contour>
		<contour>
			<point x="75" y="0" type="line"/>
			<point x="864" y="0" type="line"/>
			<point x="864" y="97" type="line"/>
			<point x="135" y="97" type="line"/>
			<point x="177" y="54" type="line"/>
			<point x="177" y="584" type="line"/>
			<point x="140" y="553" type="line"/>
			<point x="859" y="553" type="line"/>
			<point x="859" y="650" type="line"/>
			<point x="75" y="650" type="line"/>
		</contour>
	</outline>
</glyph>
<glyph name=".notdef" format="2">
	<advance width="570"/>
	<outline>
		<contour>
			<point x="75" y="-200" type="line"/>
			<point x="495" y="-200" type="line"/>
			<point x="495" y="750" type="line"/>
			<point x="75" y="750" type="line"/>
		</contour>
		<contour>
			<point x="170" y="-110" type="line"/>
			<point x="170" y="660" type="line"/>
			<point x="400" y="660" type="line"/>
			<point x="400" y="-110" type="line"/>
		</contour>
	</outline>
</glyph>
<glyph name="a.alt" format="2">
	<advance width="605"/>
	<anchor x="295" y="500" name="top"/>
	<outline>
		<contour>
			<point x="483" y="170" type="curve"/>
			<point x="455" y="170" type="line"/>
			<point x="455" y="0" type="line"/>
			<point x="535" y="0" type="line"/>
			<point x="535" y="315" type="line" smooth="yes"/>
			<point x="535" y="455"/>
			<point x="454" y="515"/>
			<point x="308" y="515" type="curve" smooth="yes"/>
			<point x="191" y="515"/>
			<point x="117" y="468"/>
			<point x="82" y="406" type="curve"/>
			<point x="172" y="363" type="line"/>
			<point x="197" y="402"/>
			<point x="237" y="427"/>
			<point x="305" y="427" type="curve" smooth="yes"/>
			<point x="394" y="427"/>
			<point x="440" y="386"/>
			<point x="440" y="303" type="curve" smooth="yes"/>
			<point x="440" y="213" type="line" smooth="yes"/>
			<point x="440" y="77"/>
			<point x="353" y="71"/>
			<point x="276" y="71" type="curve" smooth="yes"/>
			<point x="195" y="71"/>
			<point x="158" y="96"/>
			<point x="158" y="143" type="curve" smooth="yes"/>
			<point x="158" y="190"/>
			<point x="190" y="213"/>
			<point x="261" y="213" type="curve" smooth="yes"/>
			<point x="464" y="213" type="line"/>
			<point x="464" y="290" type="line"/>
			<point x="274" y="290" type="line" smooth="yes"/>
			<point x="134" y="290"/>
			<point x="65" y="244"/>
			<point x="65" y="143" type="curve" smooth="yes"/>
			<point x="65" y="40"/>
			<point x="127" y="-15"/>
			<point x="276" y="-15" type="curve" smooth="yes"/>
			<point x="392" y="-15"/>
			<point x="483" y="35"/>
		</contour>
	</outline>
</glyph>
<glyph name="g.alt" format="2">
	<advance width="584"/>
	<outline>
		<contour>
			<point x="298" y="138" type="curve" smooth="yes"/>
			<point x="461" y="138"/>
			<point x="541" y="198"/>
			<point x="541" y="328" type="curve" smooth="yes"/>
			<point x="541" y="453"/>
			<point x="463" y="515"/>
			<point x="298" y="515" type="curve" smooth="yes"/>
			<point x="136" y="515"/>
			<point x="55" y="453"/>
			<point x="55" y="322" type="curve" smooth="yes"/>
			<point x="55" y="205"/>
			<point x="133" y="138"/>
		</contour>
		<contour>
			<point x="298" y="219" type="curve" smooth="yes"/>
			<point x="196" y="219"/>
			<point x="148" y="250"/>
			<point x="148" y="323" type="curve" smooth="yes"/>
			<point x="148" y="393"/>
			<point x="196" y="427"/>
			<point x="298" y="427" type="curve" smooth="yes"/>
			<point x="392" y="427"/>
			<point x="448" y="397"/>
			<point x="448" y="323" type="curve" smooth="yes"/>
			<point x="448" y="250"/>
			<point x="405" y="219"/>
		</contour>
		<contour>
			<point x="404" y="482" type="line"/>
			<point x="404" y="515"/>
			<point x="444" y="528"/>
			<point x="483" y="528" type="curve" smooth="yes"/>
			<point x="508" y="528"/>
			<point x="537" y="523"/>
			<point x="546" y="521" type="curve"/>
			<point x="563" y="608" type="line"/>
			<point x="552" y="611"/>
			<point x="520" y="618"/>
			<point x="486" y="618" type="curve" smooth="yes"/>
			<point x="379" y="618"/>
			<point x="337" y="571"/>
			<point x="337" y="487" type="curve"/>
		</contour>
		<contour>
			<point x="316" y="-215" type="curve" smooth="yes"/>
			<point x="467" y="-215"/>
			<point x="564" y="-162"/>
			<point x="564" y="-64" type="curve" smooth="yes"/>
			<point x="564" y="13"/>
			<point x="509" y="73"/>
			<point x="350" y="73" type="curve" smooth="yes"/>
			<point x="302" y="73" type="line" smooth="yes"/>
			<point x="178" y="73"/>
			<point x="158" y="81"/>
			<point x="158" y="100" type="curve" smooth="yes"/>
			<point x="158" y="126"/>
			<point x="228" y="138"/>
			<point x="298" y="138" type="curve"/>
			<point x="266" y="194" type="line"/>
			<point x="155" y="188"/>
			<point x="63" y="151"/>
			<point x="63" y="80" type="curve" smooth="yes"/>
			<point x="63" y="12"/>
			<point x="120" y="-16"/>
			<point x="281" y="-16" type="curve" smooth="yes"/>
			<point x="329" y="-16" type="line" smooth="yes"/>
			<point x="438" y="-16"/>
			<point x="471" y="-37"/>
			<point x="471" y="-69" type="curve" smooth="yes"/>
			<point x="471" y="-105"/>
			<point x="416" y="-127"/>
			<point x="313" y="-127" type="curve" smooth="yes"/>
			<point x="191" y="-127"/>
			<point x="113" y="-81"/>
			<point x="73" y="-54" type="curve"/>
			<point x="15" y="-127" type="line"/>
			<point x="72" y="-169"/>
			<point x="173" y="-215"/>
		</contour>
	</outline>
</glyph>
<glyph name="tildecomb.case" format="2">
	<advance width="0"/>
	<anchor x="0" y="650" name="_top"/>
	<outline>
		<contour>
			<point x="-210" y="717" type="curve"/>
			<point x="-120" y="717" type="line"/>
			<point x="-120" y="746"/>
			<point x="-104" y="768"/>
			<point x="-73" y="768" type="curve" smooth="yes"/>
			<point x="-28" y="768"/>
			<point x="13" y="712"/>
			<point x="91" y="712" type="curve" smooth="yes"/>
			<point x="150" y="712"/>
			<point x="209" y="757"/>
			<point x="210" y="852" type="curve"/>
			<point x="120" y="852" type="line"/>
			<point x="120" y="823"/>
			<point x="104" y="801"/>
			<point x="73" y="801" type="curve" smooth="yes"/>
			<point x="28" y="801"/>
			<point x="-13" y="857"/>
			<point x="-91" y="857" type="curve" smooth="yes"/>
			<point x="-150" y="857"/>
			<point x="-209" y="812"/>
		</contour>
	</outline>
</glyph>
